<svg width="95" height="45" fill="none" xmlns="http://www.w3.org/2000/svg"><path d="M48.204 21.408a2.948 2.948 0 0 1-.604-1.988v-2.884c0-.883.2-1.555.601-2.015.4-.46 1.09-.688 2.066-.686.917 0 1.568.196 1.953.587.42.499.624 1.109.578 1.724v.678h-1.641v-.687c.006-.224-.01-.449-.048-.671a.65.65 0 0 0-.234-.399.95.95 0 0 0-.595-.155 1.005 1.005 0 0 0-.625.164.768.768 0 0 0-.272.44 3.338 3.338 0 0 0-.064.713v3.499c-.026.337.046.675.21.982a.771.771 0 0 0 .328.238.9.9 0 0 0 .423.055.893.893 0 0 0 .581-.158.704.704 0 0 0 .245-.425c.038-.232.055-.467.05-.701v-.71h1.642v.648a2.64 2.64 0 0 1-.568 1.813c-.377.428-1.019.642-1.963.642-.945 0-1.658-.229-2.063-.704ZM55.036 21.438c-.414-.45-.621-1.103-.621-1.968v-3.033c0-.857.207-1.505.621-1.945.415-.44 1.108-.659 2.08-.657.964 0 1.654.22 2.068.657.415.44.625 1.088.625 1.945v3.032c0 .857-.21 1.514-.631 1.966-.422.451-1.108.677-2.063.677-.954 0-1.66-.229-2.079-.674Zm2.844-.728c.148-.28.216-.589.197-.897v-3.714a1.649 1.649 0 0 0-.194-.88.776.776 0 0 0-.335-.241.907.907 0 0 0-.433-.052.918.918 0 0 0-.433.052.786.786 0 0 0-.338.242c-.15.274-.217.576-.197.88v3.73c-.02.309.047.617.197.898.096.094.214.17.346.222a1.158 1.158 0 0 0 .844 0c.132-.052.25-.128.346-.222v-.018ZM61.783 13.924h1.767l1.328 5.595 1.359-5.595h1.719L68.129 22h-1.27l-.136-5.613L65.41 22h-1.019l-1.359-5.634L62.907 22h-1.284l.16-8.076ZM70.11 13.924h2.751c1.586 0 2.378.764 2.378 2.293 0 1.464-.834 2.196-2.503 2.194h-.938V22H70.1l.01-8.077Zm2.35 3.451c.168.019.339.006.5-.039.161-.044.31-.117.435-.216a1.31 1.31 0 0 0 .244-.912 2.532 2.532 0 0 0-.081-.733.593.593 0 0 0-.125-.222.703.703 0 0 0-.215-.162 1.76 1.76 0 0 0-.758-.13h-.658v2.414h.658ZM77.689 13.924h1.824L81.385 22h-1.583l-.37-1.862h-1.628L77.424 22h-1.607l1.872-8.076Zm1.56 5.279-.636-3.39-.635 3.39h1.27ZM82.897 13.924h1.189l2.276 4.607v-4.607h1.41V22H86.64l-2.29-4.81V22h-1.457l.004-8.076ZM91.074 18.92l-1.892-4.985h1.593l1.155 3.203 1.084-3.203h1.56l-1.87 4.986V22h-1.63v-3.08ZM50.827 25.532v.422h-1.386v3.282h-.58v-3.282h-1.394v-.422h3.36ZM55.172 29.236h-.448a.2.2 0 0 1-.126-.035.193.193 0 0 1-.075-.085l-.4-.88H52.2l-.401.88a.243.243 0 0 1-.062.1.208.208 0 0 1-.125.035h-.449l1.699-3.704h.591l1.72 3.69Zm-2.813-1.375h1.604l-.68-1.508a2.699 2.699 0 0 1-.125-.349l-.065.197-.061.155-.673 1.505ZM58.1 28.872c.107.005.213.005.32 0 .092-.008.183-.023.272-.044.083-.017.165-.04.244-.067.075-.026.15-.059.228-.091v-.833h-.68a.137.137 0 0 1-.091-.03.087.087 0 0 1-.026-.03.074.074 0 0 1-.008-.037v-.284h1.318v1.42a2.578 2.578 0 0 1-.717.301c-.139.036-.28.061-.425.077a5.13 5.13 0 0 1-.496.023 2.59 2.59 0 0 1-.856-.138 2.09 2.09 0 0 1-.68-.387 1.792 1.792 0 0 1-.437-.586 1.853 1.853 0 0 1-.157-.769 1.921 1.921 0 0 1 .153-.774c.098-.22.247-.42.439-.587.193-.167.425-.297.679-.384.29-.095.6-.142.91-.138.158 0 .316.01.473.032.138.02.273.051.404.094.119.038.233.088.34.147.104.058.203.122.295.193l-.163.229a.142.142 0 0 1-.055.05.17.17 0 0 1-.077.02.222.222 0 0 1-.106-.029 2.113 2.113 0 0 1-.166-.088 1.504 1.504 0 0 0-.228-.1 2.13 2.13 0 0 0-.312-.082 2.614 2.614 0 0 0-.432-.032 2.01 2.01 0 0 0-.656.103c-.188.065-.359.165-.499.293a1.29 1.29 0 0 0-.316.46 1.731 1.731 0 0 0 0 1.235c.075.174.19.333.34.467.14.127.308.227.496.293.216.064.445.089.673.073ZM63.516 28.814h1.855v.422h-2.423v-3.704h.581l-.013 3.282ZM67.3 29.236h-.58v-3.704h.58v3.704ZM69.46 25.55a.28.28 0 0 1 .09.067l2.483 2.792a.855.855 0 0 1 0-.132V25.517h.506v3.72h-.293a.275.275 0 0 1-.125-.021.329.329 0 0 1-.092-.07l-2.48-2.79v2.88h-.486v-3.704h.303c.032 0 .065.006.095.017ZM76.816 25.532v.407h-2.059v1.223h1.668v.393h-1.668v1.265h2.059v.407h-2.657v-3.695h2.657ZM15.941 2.656l25.795 6.323v22.158l-25.795-6.32V2.655ZM14.287.766v25.127l29.1 7.136V7.905L14.287.767Z" fill="#AFB1B8"/><path d="M29.883 44.692.78 37.55V12.427l29.104 7.139v25.126Z" fill="#AFB1B8"/><path d="m14.77 2.371 25.458 6.244-10.827 9.35-25.462-6.247 10.83-9.347ZM14.286.767.779 12.427l29.104 7.14L43.387 7.904 14.287.767ZM31.52 43.279 43.388 33.03 31.521 30.12v13.16Z" fill="#AFB1B8"/></svg>