<svg width="41" height="52" fill="none" xmlns="http://www.w3.org/2000/svg"><path fill-rule="evenodd" clip-rule="evenodd" d="M17.397 2.935h-.136c-.21-.013-.42-.018-.63-.023h-.455c-.398 0-.802.01-1.205.03a.625.625 0 0 0-.09 0A28.276 28.276 0 0 0 4.363 5.625l-.432.208v22.142l1.012-.344c.888-.305 1.834-.58 2.813-.834a34.33 34.33 0 0 1 8.095-1.075v2.909c-.362.002-.714.012-1.065.03h-.084a32.36 32.36 0 0 0-6.228.956 31.634 31.634 0 0 0-7.42 2.892V4.112A29.727 29.727 0 0 1 8.84.946 29.793 29.793 0 0 1 16.176 0h.427c.511.013 1.01.036 1.477.071a21.09 21.09 0 0 1 3.656.583v2.863a22.623 22.623 0 0 0-3.542-.534l-.072-.006c-.247-.021-.494-.042-.725-.042Zm5.04 2.926c.635.049 1.292.072 1.958.072a31.467 31.467 0 0 0 7.713-.99 31.777 31.777 0 0 0 7.417-2.893v27.89a29.815 29.815 0 0 1-7.787 3.166 29.943 29.943 0 0 1-7.336.944 22.405 22.405 0 0 1-5.565-.656V5.322c.43.1.872.191 1.323.267.738.125 1.518.216 2.277.272Zm14.194.217-1.012.34c-.931.313-1.87.593-2.813.842A34.263 34.263 0 0 1 24.4 8.338c-.66 0-1.268-.018-1.855-.056l-.807-.053V31.006l.694.06c.642.057 1.305.085 1.973.085a26.883 26.883 0 0 0 6.62-.857 27.761 27.761 0 0 0 5.173-1.86l.433-.208V6.078Z" fill="#AFB1B8"/><path d="M3.021 42.212a1.492 1.492 0 0 0-1.126-.455 1.673 1.673 0 0 0-.65.122 1.463 1.463 0 0 0-.832.842c-.08.2-.119.413-.117.628v3.794c-.009.267.042.533.15.778.09.195.219.368.38.509.15.127.329.22.52.27.185.051.375.078.567.078.211.002.42-.043.612-.132a1.599 1.599 0 0 0 .959-1.465v-.424h-.992v.338a.881.881 0 0 1-.058.338.608.608 0 0 1-.144.214.697.697 0 0 1-.415.145.503.503 0 0 1-.465-.204.899.899 0 0 1-.132-.508v-3.538c-.006-.196.035-.39.121-.567a.507.507 0 0 1 .486-.229.527.527 0 0 1 .443.214.806.806 0 0 1 .164.509v.328h.982v-.387a1.788 1.788 0 0 0-.122-.664 1.562 1.562 0 0 0-.331-.534ZM8.913 42.17a1.765 1.765 0 0 0-1.129-.418c-.202 0-.402.037-.591.107a1.559 1.559 0 0 0-.908.842c-.1.231-.15.482-.145.735v3.638c-.007.256.043.51.144.745.09.196.221.37.385.509.151.14.33.25.524.32.19.07.39.106.591.107a1.714 1.714 0 0 0 1.129-.427c.158-.142.285-.315.374-.509.102-.234.151-.489.144-.745v-3.639a1.77 1.77 0 0 0-.144-.734 1.643 1.643 0 0 0-.374-.532Zm-.463 4.904a.654.654 0 0 1-.198.527.727.727 0 0 1-.933 0 .652.652 0 0 1-.197-.527v-3.639a.654.654 0 0 1 .197-.526.727.727 0 0 1 .933 0 .651.651 0 0 1 .198.526v3.64ZM16.651 48.7v-6.89h-.954l-1.252 3.647h-.018l-1.262-3.646h-.943v6.888h.984v-4.19h.017l.964 2.962h.49l.972-2.962h.018v4.19h.984ZM22.242 42.294c-.152-.17-.343-.3-.557-.377a2.184 2.184 0 0 0-.713-.107H19.51v6.89h.981v-2.691h.506c.306.014.611-.051.886-.188a1.43 1.43 0 0 0 .539-.527c.113-.183.19-.387.225-.6.038-.259.056-.521.053-.783.01-.33-.023-.662-.096-.984a1.466 1.466 0 0 0-.362-.633Zm-.506 2.1a.868.868 0 0 1-.091.359.552.552 0 0 1-.253.241 1.006 1.006 0 0 1-.463.087h-.448v-2.342h.506a.942.942 0 0 1 .443.086.556.556 0 0 1 .23.254c.054.121.083.252.086.384v.458c0 .16.01.326 0 .473h-.01ZM26.892 41.81h-.805l-1.518 6.89h.982l.288-1.48h1.338l.289 1.48h.981l-1.555-6.89Zm-.906 4.471.483-2.497h.018l.48 2.497h-.981ZM33.233 45.96h-.017l-1.483-4.15h-.943v6.89h.981v-4.143h.02l1.5 4.142h.924v-6.888h-.982v4.15ZM39.231 41.81l-.789 2.74h-.02l-.79-2.74h-1.04l1.35 3.978v2.911h.98v-2.911l1.35-3.977h-1.04ZM.284 50.645h.473v1.327h.321v-1.328h.47v-.272H.285v.273ZM4.26 50.372l-.62 1.6h.342l.132-.364h.637l.137.364h.349l-.635-1.6h-.341Zm-.05.967.217-.593.218.593H4.21ZM8.192 51.382h.37v.206a.613.613 0 0 1-.38.135.404.404 0 0 1-.34-.153.669.669 0 0 1-.118-.417c0-.356.154-.534.46-.534a.337.337 0 0 1 .362.255l.316-.062c-.068-.312-.293-.47-.678-.47a.804.804 0 0 0-.559.206.78.78 0 0 0-.23.615.873.873 0 0 0 .205.6.776.776 0 0 0 .607.235.96.96 0 0 0 .678-.255v-.63h-.693v.27ZM12.206 50.372h-.323v1.6h1.12V51.7h-.797v-1.328ZM15.601 50.372h-.324v1.6h.324v-1.6ZM18.92 51.44l-.655-1.068h-.314v1.6h.302v-1.045l.642 1.045h.321v-1.6h-.296v1.069ZM21.92 51.267h.797v-.272h-.796v-.35h.857v-.273h-1.181v1.6h1.214V51.7h-.89v-.433ZM29.196 51.003h-.63v-.63h-.321v1.599h.321v-.7h.63v.7h.321v-1.6h-.32v.631ZM32.214 51.267h.8v-.272h-.8v-.35h.86v-.273h-1.181v1.6h1.211V51.7h-.89v-.433ZM36.307 51.268c.278-.044.42-.191.42-.445a.383.383 0 0 0-.157-.356.904.904 0 0 0-.468-.094h-.678v1.599h.322v-.669h.063a.432.432 0 0 1 .2.036c.047.029.086.069.113.117l.35.508h.384l-.195-.312a1.115 1.115 0 0 0-.354-.384Zm-.324-.222h-.237v-.401h.252a.84.84 0 0 1 .327.038.21.21 0 0 1-.015.325.912.912 0 0 1-.327.038ZM39.393 51.267h.797v-.272h-.797v-.35h.86v-.273H39.07v1.6h1.214V51.7h-.89v-.433Z" fill="#AFB1B8"/></svg>