<svg width="85" height="42" fill="none" xmlns="http://www.w3.org/2000/svg"><path d="M13.678 13.103h-.003c-2.398 0-4.342 1.727-4.342 3.859v.002c0 2.131 1.944 3.859 4.342 3.859h.003c2.398 0 4.342-1.728 4.342-3.859v-.002c0-2.132-1.944-3.86-4.342-3.86ZM45.727 11.87c-.007-2.96-1.333-5.798-3.688-7.891C39.684 1.886 36.492.707 33.161.7c-3.331.005-6.525 1.184-8.881 3.277-2.356 2.094-3.683 4.931-3.69 7.892v16.323s25.134-2.488 25.137-16.32v-.003ZM.532 33.55c.006 2.06.929 4.033 2.567 5.49 1.639 1.456 3.86 2.277 6.177 2.283 2.317-.006 4.537-.827 6.175-2.283 1.639-1.456 2.562-3.429 2.569-5.488V22.194S.532 23.927.532 33.55Zm8.744 2.034c-.453 0-.896-.119-1.272-.343a2.107 2.107 0 0 1-.844-.913 1.825 1.825 0 0 1-.13-1.175c.088-.395.306-.758.627-1.042a2.39 2.39 0 0 1 1.172-.557 2.558 2.558 0 0 1 1.323.115c.418.154.776.415 1.028.75.251.335.386.728.386 1.13 0 .268-.058.534-.172.782a2.036 2.036 0 0 1-.496.662c-.213.19-.466.34-.744.443a2.54 2.54 0 0 1-.878.156v-.008ZM26.95 34.464h-1.688v1.743h-.88V31.94h2.778v.712h-1.898v1.102h1.687v.709Zm4.224-.293c0 .42-.074.788-.223 1.104-.148.317-.361.56-.638.733a1.755 1.755 0 0 1-.95.258c-.353 0-.669-.085-.946-.255a1.695 1.695 0 0 1-.645-.727 2.511 2.511 0 0 1-.23-1.09v-.21c0-.42.074-.79.225-1.108.152-.32.366-.566.641-.735.278-.172.594-.258.95-.258.355 0 .67.086.946.258.277.17.491.415.641.735.153.318.229.686.229 1.104v.19Zm-.89-.194c0-.447-.08-.787-.241-1.02a.783.783 0 0 0-.685-.348.782.782 0 0 0-.683.346c-.16.229-.241.564-.243 1.008v.208c0 .435.08.773.24 1.013.16.24.39.36.691.36a.775.775 0 0 0 .68-.345c.158-.232.238-.57.24-1.014v-.208Zm3.74 1.11a.447.447 0 0 0-.175-.38c-.117-.09-.328-.184-.633-.281a4.575 4.575 0 0 1-.724-.293c-.484-.262-.726-.615-.726-1.058 0-.23.064-.436.193-.615.13-.182.317-.323.56-.425.244-.101.517-.152.82-.152.305 0 .576.055.814.167.239.11.423.264.554.466.133.2.2.43.2.685h-.88c0-.195-.061-.347-.184-.454-.123-.11-.296-.164-.519-.164-.215 0-.382.046-.5.138a.426.426 0 0 0-.18.357c0 .139.07.255.209.349.14.093.346.181.618.263.5.15.864.337 1.093.56.228.222.342.5.342.832 0 .369-.14.66-.419.87-.279.209-.655.314-1.128.314-.328 0-.627-.06-.896-.18a1.438 1.438 0 0 1-.618-.494 1.27 1.27 0 0 1-.211-.727h.882c0 .47.28.706.843.706.21 0 .372-.042.49-.126a.418.418 0 0 0 .176-.357Zm4.69-2.434h-1.306v3.554h-.879v-3.554H35.24v-.712h3.475v.712Zm3.071 1.705h-1.687v1.143h1.98v.706h-2.86V31.94h2.854v.712h-1.974v1.017h1.687v.688Zm2.388.287h-.7v1.562h-.88V31.94h1.586c.504 0 .892.113 1.166.337.273.225.41.542.41.952 0 .291-.064.535-.19.73a1.282 1.282 0 0 1-.572.463l.923 1.743v.04h-.943l-.8-1.56Zm-.7-.712h.709c.22 0 .391-.055.512-.166a.607.607 0 0 0 .182-.466c0-.202-.058-.36-.173-.475-.113-.115-.288-.173-.524-.173h-.706v1.28Zm5.326.771v1.503h-.879V31.94h1.664c.32 0 .602.059.844.176.244.117.431.284.562.501.131.215.197.46.197.735 0 .418-.144.748-.431.99-.285.24-.68.361-1.187.361h-.77Zm0-.712h.785c.232 0 .41-.055.53-.164.123-.11.185-.266.185-.469a.704.704 0 0 0-.185-.507c-.123-.128-.293-.195-.51-.199H48.8v1.34Zm5.56.366h-1.687v1.143h1.98v.706h-2.859V31.94h2.854v.712h-1.975v1.017h1.687v.688Zm4.079-1.705H57.13v3.554h-.879v-3.554h-1.289v-.712h3.475v.712Zm3.07 1.705H59.82v1.143h1.98v.706h-2.858V31.94h2.853v.712H59.82v1.017h1.688v.688Zm2.388.287h-.7v1.562h-.88V31.94h1.585c.504 0 .893.113 1.166.337.274.225.41.542.41.952 0 .291-.063.535-.19.73a1.283 1.283 0 0 1-.571.463l.923 1.743v.04h-.944l-.8-1.56Zm-.7-.712h.708c.221 0 .392-.055.513-.166a.607.607 0 0 0 .182-.466c0-.202-.058-.36-.173-.475-.113-.115-.288-.173-.525-.173h-.706v1.28Zm5.164 1.155a.447.447 0 0 0-.175-.381c-.118-.09-.329-.184-.633-.281a4.57 4.57 0 0 1-.724-.293c-.484-.262-.726-.615-.726-1.058 0-.23.064-.436.193-.615.13-.182.317-.323.56-.425.244-.101.517-.152.82-.152.305 0 .576.055.814.167.239.11.423.264.554.466.133.2.2.43.2.685h-.88c0-.195-.061-.347-.184-.454-.123-.11-.296-.164-.519-.164-.215 0-.382.046-.5.138a.426.426 0 0 0-.18.357c0 .139.07.255.209.349.14.093.346.181.618.263.5.15.864.337 1.093.56.228.222.342.5.342.832 0 .369-.14.66-.419.87-.279.209-.655.314-1.128.314-.328 0-.627-.06-.896-.18a1.439 1.439 0 0 1-.618-.494 1.27 1.27 0 0 1-.211-.727h.882c0 .47.28.706.843.706.21 0 .372-.042.49-.126a.418.418 0 0 0 .175-.357Z" fill="#2196F3"/></svg>