<svg width="63" height="47" fill="none" xmlns="http://www.w3.org/2000/svg"><path d="M4.912 38.735c.244.276.374.622.367.977a1.43 1.43 0 0 1-.13.676 1.559 1.559 0 0 1-.438.558 2.627 2.627 0 0 1-1.652.45H.156v-6.19H3a2.593 2.593 0 0 1 1.576.41c.183.142.329.32.424.52.096.202.14.42.127.64.017.34-.1.677-.33.946-.22.246-.526.416-.866.484.386.064.733.252.981.53Zm-3.405-.934h1.215c.277.018.551-.055.773-.206a.737.737 0 0 0 .208-.275.679.679 0 0 0 .053-.33.701.701 0 0 0-.054-.329.759.759 0 0 0-.203-.276 1.255 1.255 0 0 0-.796-.209H1.507v1.625Zm2.107 2.374a.776.776 0 0 0 .224-.284.71.71 0 0 0 .064-.345.722.722 0 0 0-.067-.35.787.787 0 0 0-.227-.285 1.338 1.338 0 0 0-.826-.224H1.507v1.703h1.291c.291.015.579-.06.816-.215ZM10.726 41.397l-1.582-2.42H8.55v2.42H7.189v-6.191h2.576a2.699 2.699 0 0 1 1.794.526c.36.336.577.779.613 1.248a1.86 1.86 0 0 1-.421 1.314 2.147 2.147 0 0 1-1.23.629l1.685 2.474h-1.48ZM8.55 38.133h1.113c.773 0 1.16-.312 1.16-.937a.852.852 0 0 0-.063-.375.917.917 0 0 0-.222-.321 1.282 1.282 0 0 0-.875-.251H8.536l.014 1.884ZM18.166 40.15h-2.712l-.48 1.247h-1.426l2.49-6.122h1.543l2.48 6.122h-1.426l-.47-1.246Zm-.364-.937-.99-2.613-.992 2.613h1.982ZM27.478 41.397h-1.351l-3.03-4.21v4.21H21.75v-6.192h1.348l3.029 4.235v-4.235h1.351v6.192ZM35.188 39.915c-.28.467-.705.848-1.222 1.092a4.288 4.288 0 0 1-1.9.39h-2.404v-6.191h2.404a4.376 4.376 0 0 1 1.9.38c.517.24.943.616 1.222 1.08.278.504.423 1.06.423 1.625 0 .564-.145 1.12-.423 1.624Zm-1.546-.148a2.16 2.16 0 0 0 .598-1.478c0-.542-.212-1.066-.598-1.477a2.488 2.488 0 0 0-1.691-.527h-.938v4.008h.938a2.49 2.49 0 0 0 1.691-.526ZM19.011.767s17.44 6.028 17.07 14.751v14.754s-17.426-6.03-17.063-14.754L19.011.767ZM51.616 26.818c3.293-2.075 7.103-3.36 11.08-3.738v-4.62c-4.582 1.618-8.47 4.55-11.08 8.358Z" fill="#AFB1B8"/><path d="M49.637 28.21c2.696-4.97 7.37-8.805 13.059-10.717V4.185s-24.835 8.587-24.31 21.009V46.2s1.106-.384 2.847-1.104c0-.671 0-1.349.08-2.03.514-5.766 3.508-11.11 8.324-14.857Z" fill="#AFB1B8"/><path d="M47.275 36.013c.13-1.457.422-2.898.87-4.301-3 3.235-4.816 7.25-5.194 11.479-.036.399-.056.798-.066 1.21a74.756 74.756 0 0 0 4.777-2.305c-.44-2.001-.57-4.049-.387-6.083ZM48.263 36.089a19.058 19.058 0 0 0 .307 5.508c6.785-3.718 14.41-9.462 14.116-16.403v-.605c-4.848.497-9.384 2.437-12.91 5.523a19.256 19.256 0 0 0-1.513 5.977Z" fill="#AFB1B8"/></svg>