<svg width="45" height="42" fill="none" xmlns="http://www.w3.org/2000/svg"><path d="M7.314 41.101c.016 0 .032.004.046.01a.122.122 0 0 1 .038.024l.219.208c-.17.169-.379.304-.614.396a2.39 2.39 0 0 1-.87.142c-.28.005-.558-.04-.818-.133a1.793 1.793 0 0 1-.616-.374 1.674 1.674 0 0 1-.398-.578 1.927 1.927 0 0 1-.139-.742 1.724 1.724 0 0 1 .573-1.322c.186-.163.409-.291.654-.377.269-.09.555-.135.843-.132a2.27 2.27 0 0 1 .782.12c.216.082.414.195.586.335l-.182.222a.178.178 0 0 1-.047.04.125.125 0 0 1-.073.017.178.178 0 0 1-.08-.023l-.098-.06-.136-.076a1.552 1.552 0 0 0-.43-.132 1.892 1.892 0 0 0-.325-.024 1.76 1.76 0 0 0-.605.1 1.39 1.39 0 0 0-.475.28c-.136.128-.24.28-.308.445a1.499 1.499 0 0 0-.112.587 1.53 1.53 0 0 0 .112.597c.067.164.17.314.303.443.125.12.28.215.452.275.178.064.37.096.562.095.111.001.222-.005.333-.019a1.316 1.316 0 0 0 .72-.306.171.171 0 0 1 .103-.038ZM13.612 40.054a1.81 1.81 0 0 1-.147.737 1.594 1.594 0 0 1-.41.572 1.889 1.889 0 0 1-.645.375 2.655 2.655 0 0 1-1.658 0 1.91 1.91 0 0 1-.64-.377 1.678 1.678 0 0 1-.415-.578 1.922 1.922 0 0 1 0-1.475c.093-.216.234-.413.414-.58.183-.159.401-.282.641-.363a2.61 2.61 0 0 1 1.658 0c.242.085.461.213.643.376.18.165.32.36.412.571.1.238.15.489.147.742Zm-.572 0a1.566 1.566 0 0 0-.104-.593 1.22 1.22 0 0 0-.753-.722 1.918 1.918 0 0 0-1.205 0 1.296 1.296 0 0 0-.46.28 1.191 1.191 0 0 0-.295.443 1.737 1.737 0 0 0 0 1.184 1.209 1.209 0 0 0 .755.72c.389.127.817.127 1.205 0 .176-.061.333-.156.461-.277.13-.129.23-.28.292-.443.073-.19.108-.391.104-.592ZM17.909 40.675l.057.132c.022-.047.041-.09.063-.132a1.23 1.23 0 0 1 .07-.13l1.394-2.201c.027-.038.052-.062.08-.069a.373.373 0 0 1 .114-.012h.411v3.58h-.488V39.1a.938.938 0 0 1 0-.124l-1.401 2.232a.203.203 0 0 1-.082.081.245.245 0 0 1-.12.03h-.079a.243.243 0 0 1-.12-.03.2.2 0 0 1-.082-.081l-1.442-2.246V41.835h-.472v-3.572h.412a.373.373 0 0 1 .114.012c.034.015.061.039.077.069l1.423 2.203a.76.76 0 0 1 .071.128ZM23.152 40.497v1.34h-.545v-3.574h1.216c.23-.004.458.023.679.078.176.044.34.12.48.223a.922.922 0 0 1 .272.35c.064.146.096.302.093.458a.993.993 0 0 1-.395.815c-.14.107-.305.188-.483.236a2.3 2.3 0 0 1-.657.083l-.66-.01Zm0-.384h.66c.143.002.286-.017.422-.054a.925.925 0 0 0 .306-.154.687.687 0 0 0 .25-.538.605.605 0 0 0-.054-.291.69.69 0 0 0-.19-.244 1.172 1.172 0 0 0-.734-.192h-.66v1.473ZM30.48 41.842h-.43a.205.205 0 0 1-.12-.033.223.223 0 0 1-.07-.083l-.372-.864h-1.862l-.384.864a.205.205 0 0 1-.19.116h-.432l1.636-3.58h.567l1.658 3.58Zm-2.698-1.329h1.537l-.649-1.457c-.05-.11-.09-.222-.122-.336l-.063.187a1.69 1.69 0 0 1-.06.152l-.643 1.454ZM32.836 38.28c.033.015.061.037.082.063l2.386 2.699v-2.779h.488v3.58h-.273a.265.265 0 0 1-.111-.022.299.299 0 0 1-.088-.066l-2.383-2.696a.938.938 0 0 1 0 .123v2.66h-.488v-3.58h.29c.033 0 .067.006.097.017ZM39.81 40.419v1.421h-.545V40.42l-1.507-2.156h.488a.197.197 0 0 1 .117.03c.03.024.055.051.074.081l.943 1.391c.038.06.07.114.098.166.027.052.05.102.068.151l.071-.154c.027-.056.058-.11.093-.163l.93-1.4a.376.376 0 0 1 .07-.076.182.182 0 0 1 .118-.035h.493l-1.51 2.165ZM17.639 32.256c.237.026.477.047.72.066 3.679-1.43 6.79-3.77 8.947-6.728 2.157-2.958 3.262-6.403 3.177-9.904l-4.054-3.522c.825 3.727.439 7.58-1.113 11.128-1.553 3.548-4.21 6.65-7.677 8.96Z" fill="#AFB1B8"/><path d="m16.191 32.092.11.02c3.703-2.303 6.527-5.517 8.106-9.228 1.579-3.711 1.84-7.749.749-11.59l-5.775-5.017c2.336 4.124 3.276 8.74 2.712 13.31-.565 4.57-2.612 8.906-5.902 12.505ZM35.776 19.826c-.982 3.847-3.364 7.316-6.795 9.893a21.633 21.633 0 0 1-3.228 2.013c2.794-.713 5.361-1.974 7.505-3.686s3.806-3.829 4.86-6.187l-2.342-2.033Z" fill="#AFB1B8"/><path d="m34.857 19.26-3.335-2.897c-.063 3.303-1.144 6.531-3.13 9.348-1.985 2.818-4.803 5.122-8.16 6.673h.016c.748 0 1.496-.04 2.239-.116 3.137-1.113 5.909-2.883 8.067-5.153 2.159-2.27 3.637-4.968 4.303-7.855ZM16.674 4.16 12.696.7C9.14 1.894 6.081 3.993 3.921 6.722 1.761 9.452.599 12.684.588 15.996c.013 3.66 1.43 7.212 4.029 10.093 2.598 2.88 6.228 4.927 10.315 5.814 3.648-3.862 5.784-8.634 6.097-13.623.314-4.99-1.212-9.935-4.355-14.12ZM44.048 18.727c-.015-4.342-2.007-8.503-5.54-11.574-3.535-3.07-8.324-4.801-13.322-4.814a21.18 21.18 0 0 0-6.753 1.093l24.355 21.16a14.352 14.352 0 0 0 1.26-5.865Z" fill="#AFB1B8"/></svg>