<svg aria-hidden="true" style="position:absolute;width:0;height:0;overflow:hidden" xmlns="http://www.w3.org/2000/svg"><defs><symbol id="antenna" viewBox="0 0 32 32"><path fill="#212121" style="fill:var(--color1, #212121)" d="m30.773 22.098-8.443-8.505.937-4.616c.225.09.485.144.758.146h.033a2.16 2.16 0 1 0-2.029-1.42l-.005-.015-4.96.606L8.973.161a.53.53 0 0 0-.376-.16.536.536 0 0 0-.373.155L6.712 1.66a.535.535 0 0 0 0 .754l.814.825C6.383 5.301 5.71 7.761 5.71 10.378c0 4.106 1.656 7.824 4.336 10.525l-.001-.001a.49.49 0 0 0 .146.097 2.986 2.986 0 0 0-.052.546v6.188h-6.4a2.669 2.669 0 0 0-2.667 2.666v1.067c0 .295.239.534.534.534H26.14a.534.534 0 0 0 .533-.534v-1.067a2.67 2.67 0 0 0-2.666-2.666h-6.4v-2.742a14.784 14.784 0 0 0 10.166-1.502l-.077.039.818.823a.534.534 0 0 0 .376.16.536.536 0 0 0 .373-.155l1.512-1.504a.535.535 0 0 0 0-.754zM23.28 6.233a1.067 1.067 0 1 1 .752 1.822h-.004a1.066 1.066 0 0 1-.747-1.822h-.002zm-1.256 3.504-.598 2.946-1.175-1.183 1.774-1.763zm-.605-.902-1.92 1.909-1.486-1.493 3.406-.416zM24.004 28.8a1.6 1.6 0 0 1 1.6 1.6v.534H2.138V30.4a1.6 1.6 0 0 1 1.6-1.6h20.267zm-7.466-2.134v1.067h-5.334v-1.067h5.334zM11.204 25.6v-4.053c0-1.294 1.196-2.346 2.667-2.346s2.667 1.053 2.667 2.346V25.6h-5.334zm6.4-1.696v-2.357c0-1.882-1.675-3.413-3.733-3.413h-.058c-1.353 0-2.54.707-3.213 1.771l-.009.016a13.817 13.817 0 0 1-3.812-9.55c0-2.314.567-4.496 1.569-6.414l-.036.077 18.602 18.709c-1.823.947-3.979 1.502-6.266 1.502-1.079 0-2.128-.124-3.136-.357l.093.018zm11.289-.684L7.836 2.039l.754-.752 7.935 7.98c.004 0 .006.007.01.01l13.114 13.191-.757.752z"/><path fill="#2196f3" style="fill:var(--color2, #2196f3)" d="M13.876 20.267h-.007a1.6 1.6 0 0 0-.003 3.2h.007a1.6 1.6 0 0 0 .002-3.2zm.373 1.978a.534.534 0 1 1-.378-.912.533.533 0 0 1 .374.911h.005z"/></symbol><symbol id="astronaut" viewBox="0 0 32 32"><path fill="#2196f3" style="fill:var(--color2, #2196f3)" d="M31.974 4.524a.535.535 0 0 0-.427-.362h-.003l-1.911-.278-.855-1.731c-.179-.365-.777-.365-.956 0l-.855 1.731-1.911.278a.534.534 0 0 0-.296.91l1.383 1.348-.326 1.903a.532.532 0 0 0 .774.562l1.709-.899 1.709.899a.534.534 0 0 0 .773-.565v.003l-.326-1.903 1.383-1.348a.535.535 0 0 0 .134-.55l.001.004zm-2.463 1.327a.53.53 0 0 0-.153.472l.191 1.114-1-.526a.525.525 0 0 0-.501.001l.003-.001-1 .526.191-1.114a.53.53 0 0 0-.152-.472l-.811-.79 1.119-.162a.532.532 0 0 0 .402-.292l.5-1.013.5 1.013a.532.532 0 0 0 .402.292l1.119.162-.809.79zm-3.377 14.671h-1.067v1.067h1.067v-1.067zm0 2.134h-1.067v1.066h1.067v-1.066zm1.066-1.067h-1.067v1.067H27.2v-1.067zm-2.133 0H24v1.067h1.067v-1.067zm-2.667 4.8h-1.067v1.067H22.4v-1.067zm0 2.134h-1.067v1.067H22.4v-1.067zm1.067-1.067H22.4v1.067h1.067v-1.067zm-2.133 0h-1.067v1.067h1.067v-1.067zM16 24.256h-1.066v1.067H16v-1.067zm0 2.133h-1.066v1.067H16v-1.067zm1.067-1.067H16v1.067h1.067v-1.067zm-2.133 0h-1.067v1.067h1.067v-1.067zm-9.067-19.2H4.801v1.066h1.066V6.122zm0 2.134H4.801v1.066h1.066V8.256zm1.066-1.067H5.866v1.067h1.066V7.189zm-2.133 0H3.733v1.067H4.8V7.189z"/><path fill="#212121" style="fill:var(--color1, #212121)" d="M24.715 14.16a1.776 1.776 0 0 0-1.179-.703l-.009-.001a1.769 1.769 0 0 0-1.344.355l.004-.003-1.253.96-1.898 1.417-1.358-.541c2.421-1.086 4.113-3.508 4.113-6.32 0-3.823-3.122-6.934-6.961-6.934S7.869 5.5 7.869 9.324c0 1.386.415 2.674 1.12 3.759l-2.768-.024c-.009 0-.016.005-.023.005a.511.511 0 0 0-.159.033l.004-.001c-.013.005-.026.007-.038.013-.006.003-.013.003-.019.006l-3.233 1.596-.001.001-1.893.91a.5.5 0 0 0-.065.036l.001-.001a1.782 1.782 0 0 0-.594 2.306l-.005-.01c.22.424.592.742 1.043.885l.013.003a1.772 1.772 0 0 0 1.388-.133l-.009.005 1.388-.738 2.264-1.169 1.357-.008-5.442 5.415-.001.001-1.339 1.333a1.643 1.643 0 0 0-.491 1.173v.005a1.668 1.668 0 0 0 1.667 1.664h.002a1.67 1.67 0 0 0 1.18-.485l1.314-1.309 1.741-1.3.901.897L4.07 27.28a1.643 1.643 0 0 0-.491 1.173v.004a1.662 1.662 0 0 0 1.666 1.664h.003a1.67 1.67 0 0 0 1.18-.485l4.488-4.472c.007-.006.016-.009.022-.016l5.166-5.658 3.471.494a.474.474 0 0 0 .262-.032c.017-.006.032-.015.049-.023.019-.01.039-.015.058-.027l3.213-2.133c.012-.008.018-.021.029-.03.013-.01.029-.014.041-.026l1.271-1.191c.348-.326.564-.787.564-1.3 0-.4-.132-.769-.355-1.066l.003.005zM2.13 17.77a.706.706 0 0 1-.564.05l.005.001a.717.717 0 0 1-.215-1.258l.002-.001 1.314-.632.316.924.133.389-.992.527zm3.497-1.828-1.548.8-.255-.746-.184-.537 2.027-1.001-.04 1.484zm15.1-6.62c0 .918-.219 1.785-.599 2.56l-4.181-1.899a1.865 1.865 0 0 0-.782-1.384l-.006-.004 1.464-4.861c2.377.757 4.104 2.975 4.104 5.588zm-11.789 0c0-3.235 2.644-5.867 5.894-5.867.253 0 .5.022.745.053l-1.432 4.753c-.019 0-.037-.006-.057-.006h-.001a1.872 1.872 0 0 0-1.872 1.867 1.873 1.873 0 0 0 1.872 1.867h.001c.695 0 1.295-.383 1.618-.944l3.863 1.755a5.891 5.891 0 0 1-4.737 2.39c-3.25 0-5.894-2.632-5.894-5.867zm5.957.8c0 .441-.362.8-.806.8h-.001a.804.804 0 0 1-.804-.8c0-.441.361-.8.806-.8s.806.359.806.8zM2.464 25.146a.606.606 0 0 1-.855.001.591.591 0 0 1 0-.844l.962-.959.852.848-.959.954zm3.214 3.734a.606.606 0 0 1-.855.001.591.591 0 0 1 0-.844l.963-.959.852.848-.96.955zm3.482-3.469-.001.001-1.765 1.76-.852-.848 1.765-1.757a.527.527 0 0 0 .09-.136c.007-.014.02-.026.026-.04.016-.041.019-.085.026-.128.003-.025.014-.048.014-.073 0-.035-.013-.07-.02-.105-.006-.032-.006-.064-.019-.096a.536.536 0 0 0-.092-.138c-.01-.012-.014-.026-.025-.038h-.001l-.001-.002-1.607-1.6c-.017-.017-.039-.024-.058-.038a.491.491 0 0 0-.084-.056l-.003-.001a.527.527 0 0 0-.09-.031l-.003-.001a.502.502 0 0 0-.101-.02h-.025a.603.603 0 0 0-.075.005h.003c-.036.005-.069.009-.104.021s-.064.027-.094.045c-.02.011-.043.015-.061.029l-1.774 1.324-.901-.897 2.399-2.386 4.36 4.289-.928.919zm6.819-7.017c-.016-.002-.03.004-.046.003l-.027-.001a.562.562 0 0 0-.092.008h.003a.484.484 0 0 0-.187.07l.002-.001a.492.492 0 0 0-.083.061c-.013.011-.028.016-.04.029l-4.698 5.146-4.328-4.256 2.833-2.818a.535.535 0 0 0-.378-.911h-.002l-2.219.013.028-1.607 3.104.027a6.928 6.928 0 0 0 4.978 2.101h.003c.438 0 .864-.046 1.28-.122.04.032.08.064.129.085l2.41.96.152.758.178.886-3.003-.427zm4.041.178-.313-1.558 1.446-1.08.946 1.257-2.08 1.381zm3.753-2.831-.837.785-.931-1.236.831-.637a.735.735 0 0 1 .543-.143.718.718 0 0 1 .621.71.71.71 0 0 1-.226.521z"/><path fill="#212121" style="fill:var(--color1, #212121)" d="m13.602 18.544-2.143-2.134a.53.53 0 0 0-.752 0l-2.143 2.133a.535.535 0 0 0 0 .756l2.142 2.134a.53.53 0 0 0 .752 0l2.143-2.134a.532.532 0 0 0 0-.756zm-2.519 1.759-1.387-1.381 1.386-1.381 1.387 1.381-1.387 1.381zm6.081-15.232-.258 1.036c.071.018 1.738.452 1.738 2.149h1.067c0-2.017-1.666-2.965-2.547-3.184zm2.547 4.251h-1.067v1.066h1.067V9.322z"/></symbol><symbol id="clock" viewBox="0 0 32 32"><path fill="#212121" style="fill:var(--color1, #212121)" d="M31.296 15.301C31.295 6.849 24.441-.002 15.988 0S.685 6.855.687 15.308c.002 6.788 4.422 12.543 10.541 14.545l.108.031a.667.667 0 0 0 .529-.065.636.636 0 0 0 .283-.357l3.865-12.25a1.913 1.913 0 1 0-.852-3.63l.011-.005-5.106-5.107a.638.638 0 0 0-.902.902l5.103 5.109a1.847 1.847 0 0 0-.191.826c0 .602.283 1.137.723 1.48l.004.003-3.682 11.673C3.843 25.782.117 17.709 2.797 10.431S13.551-.573 20.829 2.108c7.278 2.681 11.004 10.754 8.323 18.032-1.345 3.581-4.003 6.406-7.374 7.938l-.088.036-.398-1.874a.639.639 0 0 0-1.05-.343l.001-.001-3.837 3.426a.637.637 0 0 0 .227 1.083l.005.001 4.899 1.563a.637.637 0 0 0 .818-.744l.001.004-.391-1.839c5.528-2.374 9.329-7.772 9.329-14.057v-.034.002zm-15.304-.637a.638.638 0 0 1 0 1.276.638.638 0 0 1 0-1.276zm2.1 14.864 2.184-1.948.603 2.84-2.787-.892z"/><path fill="#2196f3" style="fill:var(--color2, #2196f3)" d="M15.354 3.185V4.46a.638.638 0 0 0 1.276 0V3.185a.638.638 0 1 0-1.276 0zM3.876 14.664a.638.638 0 0 0 0 1.276h1.275a.638.638 0 0 0 0-1.276H3.876zm24.232 1.275a.638.638 0 0 0 0-1.276h-1.275a.638.638 0 0 0 0 1.276h1.275z"/></symbol><symbol id="diagram" viewBox="0 0 32 32"><path fill="#2196f3" style="fill:var(--color2, #2196f3)" d="M14.926 14.965h1.066v4.798h-1.066v-4.798zm4.264 2.132h1.066v2.665H19.19v-2.665zm-8.529 1.599h1.066v1.066h-1.066v-1.066zm-3.198-.533h1.066v1.599H7.463v-1.599z"/><path fill="#212121" style="fill:var(--color1, #212121)" d="M1.599 28.291h25.586a1.6 1.6 0 0 0 1.599-1.599V24.56a1.6 1.6 0 0 0-1.599-1.599h-.533V9.667l3.028-2.868a1.608 1.608 0 1 0-.742-.752l-.004-.01-2.281 2.162v-1.23a1.6 1.6 0 0 0-1.599-1.599H3.731a1.6 1.6 0 0 0-1.599 1.599v15.992h-.533A1.6 1.6 0 0 0 0 24.56v2.132a1.6 1.6 0 0 0 1.599 1.599zM30.384 4.837a.533.533 0 0 1 0 1.066.533.533 0 0 1 0-1.066zM3.198 6.969c0-.294.239-.533.533-.533h21.323c.294 0 .533.239.533.533v2.239l-1.066 1.013V8.036a.534.534 0 0 0-.534-.534H4.798a.534.534 0 0 0-.534.533v13.327c0 .294.239.533.534.533h19.189a.534.534 0 0 0 .534-.533v-9.675l1.066-1.01V22.96H3.198V6.969zm4.798 6.93h-.005a1.6 1.6 0 1 0 1.112 2.748l1.853.93a.535.535 0 0 0 .636-.122l3.939-4.432 3.872 2.902a.534.534 0 0 0 .686-.039l3.365-3.188v8.131H5.331V8.568h18.123v2.661l-3.771 3.572-3.904-2.927a.534.534 0 0 0-.718.071v.001l-3.993 4.493-1.493-.746c.011-.064.017-.128.02-.193a1.6 1.6 0 0 0-1.599-1.599zm.533 1.599a.533.533 0 0 1-1.066 0 .533.533 0 0 1 1.066 0zm3.198 8.528h5.33v.533a.533.533 0 0 1-.533.533h-4.265a.533.533 0 0 1-.533-.533v-.533zm-10.66.534c0-.294.238-.533.533-.533h9.062v.533a1.6 1.6 0 0 0 1.599 1.599h4.265a1.6 1.6 0 0 0 1.599-1.599v-.533h9.062c.294 0 .533.239.533.533v2.132a.533.533 0 0 1-.533.533H1.601a.533.533 0 0 1-.533-.533V24.56z"/></symbol><symbol id="envelope" viewBox="0 0 43 32"><path fill="#757575" style="fill:var(--color3, #757575)" d="M38.667 0H4C1.795 0 0 1.795 0 4v24c0 2.205 1.795 4 4 4h34.667c2.205 0 4-1.795 4-4V4c0-2.205-1.795-4-4-4zm0 2.667c.181 0 .355.037.512.104L21.334 18.238 3.489 2.771c.151-.065.327-.104.512-.104h34.667zm0 26.666H4A1.333 1.333 0 0 1 2.667 28V5.587l17.792 15.421c.233.203.539.327.875.327s.642-.124.876-.328l-.002.001L40 5.587V28c0 .736-.597 1.333-1.333 1.333z"/></symbol><symbol id="facebook" viewBox="0 0 32 32"><path fill="#afb1b8" style="fill:var(--color4, #afb1b8)" d="M21.328 5.312h2.923V.224A36.483 36.483 0 0 0 20.143 0h-.156.008c-4.213 0-7.099 2.65-7.099 7.52V12H8.25v5.688h4.646V32h5.699V17.69h4.459l.707-5.688h-5.168V8.08c0-1.643.443-2.768 2.734-2.768z"/></symbol><symbol id="group" viewBox="0 0 29 32"><path fill="#afb1b8" style="fill:var(--color4, #afb1b8)" d="m4.534 0 4.771 4.517-8.857-.005v21.915h23.149v-8.379l4.766 4.512V.001H4.533zm18.855 17.517L9.861 4.71h13.528v12.807zm-4.201 5.703H4.113V8.482h1.066v13.74H19.19v.997zM7.673 29.345l-.557 1.147-.557-1.147h-.467l.813 1.529v.891h.422v-.891l.811-1.529h-.465zm.699 2.42.197-.564h.937l.198.564h.439l-.916-2.42H8.85l-.914 2.42h.438zm.666-1.906.351 1.004h-.701l.351-1.004zm2.217.945a.544.544 0 0 0-.091.303v.004c0 .204.072.37.214.497s.336.19.575.19a1 1 0 0 0 .619-.195l.136.161h.468l-.355-.421c.14-.191.209-.435.209-.733h-.351a.973.973 0 0 1-.101.444l-.467-.552.165-.12a.922.922 0 0 0 .249-.249l.002-.003a.53.53 0 0 0 .076-.275v-.013a.5.5 0 0 0-.17-.375h-.001a.61.61 0 0 0-.408-.157H12h.001c-.195 0-.35.056-.466.166s-.172.259-.172.449c0 .078.018.157.054.241.038.083.104.184.197.302-.179.129-.3.24-.361.334zm1.092.536a.613.613 0 0 1-.382.136h-.019a.395.395 0 0 1-.27-.106.363.363 0 0 1-.109-.259v-.014.001c0-.129.067-.245.2-.346l.052-.037.528.624zm-.433-1.073c-.114-.141-.172-.257-.172-.351 0-.081.023-.148.07-.201a.239.239 0 0 1 .178-.081H12h-.001.009c.067 0 .127.026.173.068a.214.214 0 0 1 .072.161v.008a.3.3 0 0 1-.103.226l-.051.041-.184.127zm3.939 1.315c.166-.145.261-.347.286-.605h-.419c-.022.173-.075.296-.157.37-.084.075-.208.112-.372.112a.471.471 0 0 1-.413-.206c-.093-.138-.14-.337-.14-.599v-.214c.002-.259.052-.453.15-.587a.494.494 0 0 1 .422-.201c.157 0 .276.039.357.116s.133.202.152.376h.419c-.027-.265-.121-.47-.285-.615s-.378-.218-.645-.218a.976.976 0 0 0-.525.142.925.925 0 0 0-.345.396l-.002.006a1.396 1.396 0 0 0-.122.576v.03-.001.226c.003.223.045.418.125.587s.193.298.339.39a.952.952 0 0 0 .511.136c.276 0 .497-.072.663-.216zm2.471-.339c.082-.18.123-.388.123-.625v-.16c0-.215-.046-.42-.13-.604l.004.009a.932.932 0 0 0-.35-.406l-.004-.002c-.152-.095-.326-.143-.524-.143s-.372.048-.525.144a.939.939 0 0 0-.354.414c-.079.175-.125.38-.125.595v.032-.002.136c.001.232.043.436.126.613a.95.95 0 0 0 .356.411.98.98 0 0 0 .525.143.971.971 0 0 0 .526-.143.941.941 0 0 0 .352-.413zm-.45-1.369c.102.143.152.349.152.618v.126c0 .272-.05.48-.151.622a.49.49 0 0 1-.429.213h-.018a.5.5 0 0 1-.413-.217l-.001-.002c-.103-.145-.155-.351-.155-.617v-.14c.003-.26.054-.462.157-.603a.498.498 0 0 1 .409-.215h.018-.001c.187 0 .33.072.431.214z"/></symbol><symbol id="group1" viewBox="0 0 25 32"><path fill="#afb1b8" style="fill:var(--color4, #afb1b8)" d="M10.706 1.806h-.084a9.985 9.985 0 0 0-.388-.014h-.28c-.245 0-.494.006-.742.018l-.028-.001-.029.001h.001a17.363 17.363 0 0 0-6.577 1.696l.104-.045-.266.128v13.626l.623-.212a23.32 23.32 0 0 1 1.731-.513c1.488-.398 3.202-.638 4.967-.661h.014v1.79c-.223.001-.439.007-.655.018h-.052a20.051 20.051 0 0 0-3.971.619l.139-.031a19.399 19.399 0 0 0-4.666 1.83l.1-.051V2.529A17.896 17.896 0 0 1 5.312.608L5.439.58A17.87 17.87 0 0 1 9.95-.002h.267c.314.008.622.022.909.044.83.06 1.598.187 2.34.378l-.09-.02v1.762a13.17 13.17 0 0 0-2.134-.326l-.045-.003-.044-.004c-.152-.013-.304-.026-.446-.026zm3.101 1.801c.391.03.795.044 1.205.044a19.413 19.413 0 0 0 4.881-.639l-.135.03a19.475 19.475 0 0 0 4.665-1.831l-.101.051v17.163a17.979 17.979 0 0 1-4.665 1.921l-.127.028a17.954 17.954 0 0 1-4.51.581h-.115c-1.177 0-2.319-.147-3.409-.425l.095.021V3.276c.265.062.537.118.814.164.454.077.934.133 1.401.167zm8.735.133-.623.209c-.573.193-1.151.365-1.731.518-1.551.415-3.332.657-5.169.663h-.004c-.406 0-.78-.011-1.142-.034l-.497-.033V19.08l.427.037c.395.035.803.052 1.214.052a16.554 16.554 0 0 0 4.189-.553l-.116.026a16.96 16.96 0 0 0 3.285-1.189l-.102.044.266-.128V3.739zM1.859 25.977a.916.916 0 0 0-.661-.281l-.034.001h.002-.014c-.139 0-.272.028-.393.078l.007-.003a.904.904 0 0 0-.51.512l-.002.006a1.021 1.021 0 0 0-.072.386v2.335c-.006.164.026.328.092.479.055.12.135.226.234.313a.817.817 0 0 0 .32.166c.114.031.231.048.349.048a.987.987 0 0 0 .967-.983v-.261h-.61v.222c0 .07-.013.136-.037.198l.001-.004a.38.38 0 0 1-.089.132.426.426 0 0 1-.255.089.308.308 0 0 1-.286-.125l-.001-.001a.548.548 0 0 1-.082-.289l.001-.024v.001-2.177a.752.752 0 0 1 .074-.349.31.31 0 0 1 .3-.141h-.002.012c.107 0 .201.052.26.131l.001.001a.493.493 0 0 1 .101.3v.014-.001.202h.604v-.247a1.1 1.1 0 0 0-.078-.407l.003.007a.968.968 0 0 0-.204-.329zm3.626-.026a1.055 1.055 0 0 0-1.058-.191.965.965 0 0 0-.556.512l-.002.006a1.08 1.08 0 0 0-.089.452v2.239c-.004.158.026.314.089.458a.89.89 0 0 0 .237.313.955.955 0 0 0 .322.197 1.048 1.048 0 0 0 1.06-.198l-.001.001a.962.962 0 0 0 .23-.313c.063-.144.093-.301.089-.458v-2.26c0-.156-.033-.304-.092-.438l.003.007a1.016 1.016 0 0 0-.23-.327zM5.2 28.969l.001.034a.4.4 0 0 1-.123.29.445.445 0 0 1-.575-.001l.001.001a.398.398 0 0 1-.121-.326v.002-2.239l-.001-.034a.4.4 0 0 1 .123-.289.445.445 0 0 1 .575.001l-.001-.001a.4.4 0 0 1 .121.325v-.002 2.24zm5.047 1v-4.24H9.66l-.77 2.244h-.011l-.777-2.244h-.58v4.239h.606V27.39h.01l.593 1.823h.302l.598-1.823h.011v2.578h.606zm3.44-3.942a.837.837 0 0 0-.343-.232 1.31 1.31 0 0 0-.416-.066h-.024.001-.9v4.24h.604v-1.656h.311c.188.009.376-.031.545-.116a.88.88 0 0 0 .329-.32l.002-.004a1 1 0 0 0 .138-.369c.023-.159.034-.321.033-.482a2.426 2.426 0 0 0-.059-.606.906.906 0 0 0-.223-.39zm-.311 1.292a.538.538 0 0 1-.057.224l.001-.003a.342.342 0 0 1-.154.147l-.002.001a.617.617 0 0 1-.254.054l-.033-.001h.002-.276V26.3h.311l.029-.001c.088 0 .172.02.247.055l-.004-.002a.35.35 0 0 1 .141.154l.001.002a.62.62 0 0 1 .053.236v.282c0 .098.006.201 0 .291h-.006zm3.173-1.59h-.495l-.934 4.24h.604l.177-.911h.823l.178.911h.604l-.957-4.24zm-.558 2.752.297-1.537h.011l.295 1.537h-.604zm4.46-.198h-.01l-.913-2.554h-.58v4.24h.604v-2.55h.012l.923 2.549h.569v-4.239h-.604v2.554zm3.691-2.554-.486 1.686h-.012l-.486-1.686h-.64l.831 2.448v1.791h.603v-1.791l.831-2.447h-.64zM.175 31.166h.291v.817h.198v-.817h.289v-.167H.176v.168zm2.447-.168-.382.985h.21l.081-.224h.392l.084.224h.215l-.391-.985h-.21zm-.031.595.134-.365.134.365h-.268zm2.45.027h.228v.127a.378.378 0 0 1-.234.083h-.014a.25.25 0 0 1-.195-.094.406.406 0 0 1-.073-.234l.001-.023v.001c0-.219.095-.329.283-.329l.021-.001c.097 0 .178.067.201.157v.001l.194-.038c-.042-.192-.18-.289-.417-.289h-.013a.492.492 0 0 0-.331.127.48.48 0 0 0-.141.38v-.002.023c0 .132.048.254.127.347l-.001-.001c.087.09.209.146.343.146L5.052 32h-.001.016c.155 0 .296-.06.402-.157v-.388h-.426v.166zm2.47-.622h-.199v.985h.689v-.167h-.49v-.817zm2.09 0h-.199v.985h.199v-.985zm2.042.657-.403-.657h-.193v.985h.186v-.643l.395.643h.198v-.985h-.182v.658zm1.846-.106h.49v-.167h-.49v-.215h.527v-.168h-.727v.985h.747v-.167h-.548v-.266zm4.478-.163h-.388v-.388h-.198v.984h.198v-.431h.388v.431h.198v-.985h-.197v.388zm1.857.163h.492v-.167h-.492v-.215h.529v-.168h-.727v.985h.745v-.167h-.548v-.266zm2.519.001c.171-.027.258-.118.258-.274a.23.23 0 0 0-.096-.219h-.001a.555.555 0 0 0-.25-.059l-.04.001h.002-.417v.984h.198v-.412h.055c.039 0 .076.008.109.023l-.002-.001a.201.201 0 0 1 .07.072l.215.313h.236l-.12-.192a.704.704 0 0 0-.215-.235l-.002-.002zm-.2-.137h-.146v-.247h.155a.538.538 0 0 1 .205.024l-.004-.001a.13.13 0 0 1-.009.2.537.537 0 0 1-.164.025l-.039-.001h.002zm2.099.136h.49v-.167h-.49v-.215h.529v-.168h-.728v.985h.747v-.167h-.548v-.266z"/></symbol><symbol id="group2" viewBox="0 0 34 32"><path fill="#afb1b8" style="fill:var(--color4, #afb1b8)" d="M5.573 31.315c.012 0 .024.003.035.008s.021.011.029.018l.167.158c-.13.129-.289.232-.468.302a1.78 1.78 0 0 1-.62.109l-.045-.001h.002a1.751 1.751 0 0 1-.623-.101 1.365 1.365 0 0 1-.47-.286l.001.001a1.277 1.277 0 0 1-.3-.432l-.003-.008a1.442 1.442 0 0 1-.106-.548v-.018.001-.029c0-.388.168-.737.436-.977l.001-.001a1.52 1.52 0 0 1 .498-.287 1.96 1.96 0 0 1 .642-.101h.04c.199 0 .39.034.568.096l-.012-.004c.165.062.315.149.446.255l-.139.169a.143.143 0 0 1-.035.03h-.001a.098.098 0 0 1-.048.013H5.56a.132.132 0 0 1-.062-.018h.001l-.075-.046-.104-.058a1.182 1.182 0 0 0-.321-.1l-.007-.001a1.376 1.376 0 0 0-.23-.018h-.019.001-.015c-.16 0-.313.028-.455.079l.009-.003a1.07 1.07 0 0 0-.363.214l.001-.001a.977.977 0 0 0-.235.339 1.122 1.122 0 0 0-.085.433v.015-.001.017c0 .158.031.308.088.446l-.003-.008a.958.958 0 0 0 .575.548c.136.049.282.073.428.072.085.001.169-.004.254-.014.211-.022.4-.106.55-.234l-.001.001a.133.133 0 0 1 .078-.029zm4.798-.798v.017c0 .197-.041.384-.116.553l.003-.009a1.24 1.24 0 0 1-.311.435l-.001.001c-.138.123-.302.22-.481.283l-.01.003a2.03 2.03 0 0 1-1.278-.004l.014.004a1.471 1.471 0 0 1-.489-.288l.001.001a1.28 1.28 0 0 1-.313-.432l-.003-.008a1.454 1.454 0 0 1 .004-1.134l-.004.01a1.31 1.31 0 0 1 .315-.442 1.46 1.46 0 0 1 .488-.277 2.003 2.003 0 0 1 1.278.004l-.014-.004c.184.065.351.162.49.286a1.296 1.296 0 0 1 .426 1zm-.436 0v-.024a1.19 1.19 0 0 0-.082-.436l.003.008a.931.931 0 0 0-.567-.548l-.007-.002a1.455 1.455 0 0 0-.928.003l.01-.003a.993.993 0 0 0-.351.214.914.914 0 0 0-.223.331l-.002.006a1.321 1.321 0 0 0 .003.911l-.003-.009c.101.26.309.46.569.547l.007.002c.296.097.622.097.918 0a.967.967 0 0 0 .351-.211.946.946 0 0 0 .222-.338c.056-.145.082-.298.079-.451zm3.71.473.043.101c.017-.036.031-.069.048-.101a.821.821 0 0 1 .056-.103l-.002.004 1.062-1.677c.021-.029.04-.047.061-.053s.047-.009.073-.009h.015H15h.313v2.728h-.372v-2.09a.68.68 0 0 1 0-.096v.002l-1.067 1.701a.158.158 0 0 1-.062.061h-.001a.19.19 0 0 1-.09.023h-.064a.183.183 0 0 1-.09-.023h.001a.146.146 0 0 1-.062-.061v-.001l-1.099-1.711v2.189h-.36v-2.722h.328c.026 0 .051.003.075.01h-.002c.026.011.046.03.059.053l1.084 1.678c.02.028.038.06.053.094l.001.004zm3.995-.135v1.021h-.415v-2.723h.926c.175-.003.349.018.517.059.134.034.259.091.366.17.089.07.159.16.205.262l.002.004a.83.83 0 0 1 .071.349v.017a.755.755 0 0 1-.299.603l-.002.001a1.062 1.062 0 0 1-.368.18c-.14.04-.301.064-.468.064h-.035l-.501-.008zm0-.293h.503c.109.002.218-.013.322-.041a.695.695 0 0 0 .235-.119l-.002.001a.523.523 0 0 0 .191-.404v-.006l.001-.029a.453.453 0 0 0-.043-.195l.001.003a.529.529 0 0 0-.144-.185l-.001-.001a.888.888 0 0 0-.562-.146h.003-.503v1.122zm5.583 1.318h-.334a.15.15 0 0 1-.086-.026h.001a.166.166 0 0 1-.053-.062v-.001l-.283-.658h-1.419l-.293.658a.156.156 0 0 1-.141.088h-.333l1.246-2.728h.432l1.263 2.728zm-2.056-1.013h1.171l-.494-1.11a1.746 1.746 0 0 1-.093-.256l-.048.142a1.284 1.284 0 0 1-.049.124l.003-.008-.49 1.108zm3.851-1.701a.165.165 0 0 1 .062.048l1.818 2.056v-2.117h.372v2.728h-.212a.204.204 0 0 1-.082-.017h.001a.24.24 0 0 1-.067-.05l-1.816-2.054.002.047-.002.049v-.002 2.027h-.372v-2.728h.221a.23.23 0 0 1 .074.013zm5.313 1.629v1.083h-.415v-1.082l-1.148-1.643h.381a.16.16 0 0 1 .081.023h-.001a.234.234 0 0 1 .056.062l.718 1.06c.029.046.053.087.075.126s.038.078.052.115l.054-.117c.021-.043.044-.084.071-.124l.709-1.067a.293.293 0 0 1 .053-.058.137.137 0 0 1 .082-.027h.384l-1.15 1.65zm-16.892-6.219c.181.02.363.036.549.05 2.803-1.09 5.173-2.872 6.817-5.126s2.485-4.878 2.421-7.546l-3.089-2.683c.629 2.84.334 5.775-.848 8.478s-3.208 5.067-5.849 6.827z"/><path fill="#afb1b8" style="fill:var(--color4, #afb1b8)" d="m12.336 24.451.084.015c2.821-1.755 4.973-4.203 6.176-7.031s1.402-5.904.571-8.83l-4.4-3.822c1.78 3.142 2.496 6.659 2.066 10.141s-1.99 6.786-4.497 9.528zm14.922-9.345c-.748 2.931-2.563 5.574-5.177 7.538a16.213 16.213 0 0 1-2.367 1.49l-.092.043c2.129-.543 4.085-1.504 5.718-2.808s2.9-2.917 3.703-4.714l-1.784-1.549z"/><path fill="#afb1b8" style="fill:var(--color4, #afb1b8)" d="m26.558 14.674-2.541-2.207c-.048 2.517-.872 4.976-2.385 7.122s-3.659 3.902-6.217 5.084h.012c.57 0 1.14-.03 1.706-.088 2.39-.848 4.502-2.197 6.146-3.926s2.771-3.785 3.278-5.985zM12.704 3.17 9.673.534c-2.709.91-5.04 2.509-6.686 4.588S.456 9.664.448 12.188c.01 2.789 1.09 5.495 3.07 7.69s4.745 3.754 7.859 4.43c2.779-2.942 4.407-6.578 4.645-10.379s-.923-7.57-3.318-10.758zM33.56 14.268c-.011-3.308-1.529-6.478-4.221-8.818-2.693-2.339-6.342-3.658-10.15-3.668h-.028c-1.831 0-3.59.305-5.231.867l.114-.034L32.6 18.737c.605-1.313.958-2.849.96-4.468v-.001z"/></symbol><symbol id="group3" viewBox="0 0 65 32"><path fill="#2196f3" style="fill:var(--color2, #2196f3)" d="M10.421 9.983h-.002c-1.827 0-3.308 1.316-3.308 2.94v.002c0 1.624 1.481 2.94 3.308 2.94h.002c1.827 0 3.308-1.317 3.308-2.94v-.002c0-1.624-1.481-2.941-3.308-2.941zm24.419-.939c-.005-2.255-1.016-4.418-2.81-6.012S27.804.539 25.266.534c-2.538.004-4.971.902-6.766 2.497s-2.806 3.757-2.811 6.013v12.437s19.15-1.896 19.152-12.434v-.002zM.405 25.562c.005 1.57.708 3.073 1.956 4.183s2.941 1.735 4.706 1.739c1.765-.005 3.457-.63 4.705-1.739s1.952-2.613 1.957-4.181V16.91S.405 18.23.405 25.562zm6.662 1.55c-.345 0-.683-.091-.969-.261a1.619 1.619 0 0 1-.639-.686l-.004-.009a1.394 1.394 0 0 1-.097-.904l-.002.009c.067-.301.233-.578.478-.794a1.81 1.81 0 0 1 .882-.423l.011-.002a1.939 1.939 0 0 1 1.021.092l-.013-.004c.318.117.591.316.783.571s.294.555.294.861c0 .204-.044.407-.131.596a1.555 1.555 0 0 1-.376.503l-.002.001a1.78 1.78 0 0 1-.567.338 1.907 1.907 0 0 1-.668.119h-.001v-.006zm13.466-.854h-1.286v1.328h-.67v-3.251h2.117v.542h-1.446v.84h1.285v.54zm3.219-.223c0 .32-.056.6-.17.841a1.282 1.282 0 0 1-1.184.755h-.027.001c-.269 0-.51-.065-.721-.194a1.299 1.299 0 0 1-.488-.546l-.003-.008a1.881 1.881 0 0 1-.175-.8v-.032.002-.16c0-.32.056-.602.171-.844a1.29 1.29 0 0 1 .488-.56c.212-.131.453-.197.724-.197s.51.066.721.197c.211.13.374.316.488.56.117.242.174.523.174.841v.145zm-.678-.148c0-.341-.061-.6-.184-.777a.596.596 0 0 0-.496-.266l-.027.001h.001l-.025-.001a.597.597 0 0 0-.494.262l-.001.002c-.122.174-.184.43-.185.768v.158c0 .331.061.589.183.772s.297.274.526.274l.026.001a.59.59 0 0 0 .49-.261l.001-.002c.12-.177.181-.434.183-.773v-.158zm2.849.846.001-.019a.34.34 0 0 0-.133-.27l-.001-.001c-.089-.069-.25-.14-.482-.214a3.485 3.485 0 0 1-.571-.232l.019.009c-.369-.2-.553-.469-.553-.806 0-.175.049-.332.147-.469.099-.139.242-.246.427-.324s.394-.116.625-.116c.232 0 .439.042.62.127a.973.973 0 0 1 .422.355.926.926 0 0 1 .152.522h-.67a.434.434 0 0 0-.14-.346c-.094-.084-.226-.125-.395-.125-.164 0-.291.035-.381.105a.326.326 0 0 0-.137.265v.007c0 .106.053.194.159.266s.264.138.471.2c.381.114.658.257.833.427s.261.381.261.634c0 .281-.107.503-.319.663s-.499.239-.859.239c-.25 0-.478-.046-.683-.137a1.11 1.11 0 0 1-.469-.373l-.002-.003a.956.956 0 0 1-.161-.534v-.021.001h.672c0 .358.213.538.642.538.16 0 .283-.032.373-.096a.317.317 0 0 0 .134-.26v-.013.001zm3.573-1.855h-.995v2.708h-.67v-2.708h-.982v-.542h2.648v.542zm2.34 1.3h-1.285v.871h1.509v.538h-2.179v-3.251h2.174v.542h-1.504v.775h1.285v.524zm1.82.218h-.533v1.19h-.67v-3.251h1.208c.384 0 .68.086.888.257s.312.413.312.725c0 .222-.049.408-.145.556a.982.982 0 0 1-.429.35l-.006.002.703 1.328v.03h-.718l-.61-1.189zm-.534-.542h.54c.168 0 .298-.042.39-.126a.46.46 0 0 0 .139-.331l-.001-.025v.001a.488.488 0 0 0-.132-.362c-.086-.088-.219-.132-.399-.132h-.538v.975zm4.058.587v1.145h-.67v-3.251h1.268c.244 0 .459.045.643.134a.978.978 0 0 1 .428.382c.1.164.15.35.15.56 0 .318-.11.57-.328.754-.217.183-.518.275-.904.275h-.587zm0-.542h.598c.177 0 .312-.042.404-.125a.454.454 0 0 0 .141-.357l.001-.023a.533.533 0 0 0-.142-.363.527.527 0 0 0-.389-.152h-.613V25.9zm4.236.279h-1.285v.871h1.509v.538h-2.178v-3.251h2.174v.542h-1.505v.775h1.285v.524zm3.108-1.3h-.997v2.708h-.67v-2.708h-.982v-.542h2.648v.542zm2.339 1.3h-1.286v.871h1.509v.538h-2.178v-3.251h2.174v.542h-1.505v.775h1.286v.524zm1.82.218h-.533v1.19h-.67v-3.251h1.208c.384 0 .68.086.888.257s.312.413.312.725a.996.996 0 0 1-.145.556.984.984 0 0 1-.429.35l-.006.002.703 1.328v.03h-.719l-.61-1.189zm-.534-.542h.539c.168 0 .299-.042.391-.126a.46.46 0 0 0 .139-.331l-.001-.025v.001a.488.488 0 0 0-.132-.362c-.086-.088-.219-.132-.4-.132h-.538v.975zm3.935.88.001-.02a.34.34 0 0 0-.133-.27l-.001-.001c-.09-.069-.251-.14-.482-.214a3.485 3.485 0 0 1-.571-.232l.019.009c-.369-.2-.553-.469-.553-.806 0-.175.049-.332.147-.469.099-.139.242-.246.427-.324s.394-.116.625-.116c.232 0 .439.042.62.127a.973.973 0 0 1 .422.355.926.926 0 0 1 .152.522h-.67a.434.434 0 0 0-.14-.346c-.094-.084-.226-.125-.395-.125-.164 0-.291.035-.381.105a.326.326 0 0 0-.137.265v.007c0 .106.053.194.159.266s.264.138.471.2c.381.114.658.257.833.427s.261.381.261.634c0 .281-.107.503-.319.663s-.499.239-.859.239c-.25 0-.478-.046-.683-.137a1.11 1.11 0 0 1-.469-.373l-.002-.003a.956.956 0 0 1-.161-.534v-.021.001h.672c0 .358.213.538.642.538.16 0 .283-.032.373-.096a.32.32 0 0 0 .134-.259v-.013.001z"/></symbol><symbol id="group4" viewBox="0 0 43 32"><path fill="#afb1b8" style="fill:var(--color4, #afb1b8)" d="M3.344 26.373a.975.975 0 0 1 .25.665.977.977 0 0 1-.091.467l.003-.006a1.057 1.057 0 0 1-.296.378l-.002.002a1.776 1.776 0 0 1-1.13.306h.006H.108v-4.214h1.936a1.76 1.76 0 0 1 1.08.283l-.007-.004a.992.992 0 0 1 .289.354.893.893 0 0 1 .086.436.916.916 0 0 1-.225.644c-.15.168-.358.283-.59.33.263.044.499.172.668.361zm-2.318-.636h.827a.84.84 0 0 0 .526-.14.505.505 0 0 0 .14-.184l.001-.003a.453.453 0 0 0 .036-.226v.002l.001-.037a.478.478 0 0 0-.039-.19l.001.003a.51.51 0 0 0-.138-.187l-.001-.001a.845.845 0 0 0-.545-.142h.003-.814v1.106zm1.435 1.616a.527.527 0 0 0 .151-.19l.001-.003a.477.477 0 0 0 .045-.203l-.001-.034v.002l.001-.03a.485.485 0 0 0-.048-.212l.001.003a.532.532 0 0 0-.153-.193l-.001-.001a.898.898 0 0 0-.565-.152h.003-.868v1.16h.879a.938.938 0 0 0 .556-.146zm4.842.832-1.077-1.648h-.404v1.648h-.927V23.97h1.754a1.83 1.83 0 0 1 1.227.362l-.005-.003a1.297 1.297 0 0 1 .42.938c0 .307-.109.589-.291.808l.002-.002a1.455 1.455 0 0 1-.829.427l-.008.001 1.147 1.684H7.304zm-1.482-2.222h.758c.526 0 .79-.212.79-.638l.001-.034a.58.58 0 0 0-.045-.225l.001.004a.618.618 0 0 0-.151-.218.865.865 0 0 0-.599-.171h.003-.767l.01 1.283zm6.547 1.373h-1.846l-.327.849h-.971l1.695-4.168h1.051l1.688 4.168h-.971l-.32-.848zm-.248-.638-.674-1.779-.675 1.779h1.349zm6.588 1.487h-.92l-2.063-2.866v2.866h-.917v-4.216h.918l2.062 2.883v-2.883h.92v4.216zm5.25-1.009a1.93 1.93 0 0 1-.832.744 2.883 2.883 0 0 1-1.219.267l-.079-.001h.004-1.637v-4.215h1.637l.077-.001c.441 0 .859.096 1.235.267l-.019-.008c.352.163.642.419.832.735.189.343.288.722.288 1.106s-.099.763-.288 1.106zm-1.053-.101a1.46 1.46 0 0 0 .407-1.006c0-.369-.144-.726-.407-1.006a1.681 1.681 0 0 0-1.157-.359h.005-.639v2.729h.639a1.69 1.69 0 0 0 1.155-.361l-.004.003zM12.944.522s11.874 4.104 11.622 10.043V20.61s-11.864-4.106-11.617-10.045L12.944.522zm22.199 17.737c2.242-1.413 4.836-2.288 7.544-2.545v-3.146c-3.12 1.102-5.767 3.098-7.544 5.691z"/><path fill="#afb1b8" style="fill:var(--color4, #afb1b8)" d="M33.795 19.207c1.836-3.384 5.018-5.995 8.891-7.297V2.849S25.777 8.695 26.134 17.153v14.302s.753-.261 1.938-.752c0-.457 0-.918.054-1.382.35-3.926 2.388-7.564 5.667-10.115z"/><path fill="#afb1b8" style="fill:var(--color4, #afb1b8)" d="M32.187 24.52a13.62 13.62 0 0 1 .592-2.928c-2.043 2.203-3.279 4.936-3.536 7.816a13 13 0 0 0-.045.824 46.951 46.951 0 0 0 3.525-1.703l-.273.133a13.603 13.603 0 0 1-.264-4.142zm.673.051a13.013 13.013 0 0 0 .224 3.835l-.015-.084c4.62-2.531 9.811-6.442 9.611-11.168v-.412c-3.301.338-6.389 1.659-8.79 3.76-.53 1.19-.896 2.57-1.026 4.019l-.004.051z"/></symbol><symbol id="group5" viewBox="0 0 68 32"><path fill="#afb1b8" style="fill:var(--color4, #afb1b8)" d="M34.278 15.223a2.08 2.08 0 0 1-.429-1.42v.006-2.051c0-.628.142-1.106.427-1.433s.775-.489 1.469-.488c.652 0 1.115.139 1.389.417.299.355.444.789.411 1.226v.482h-1.167v-.489a2.465 2.465 0 0 0-.034-.477.462.462 0 0 0-.166-.283l-.001-.001a.672.672 0 0 0-.373-.112l-.053.002h.002a.712.712 0 0 0-.447.118l.003-.002a.546.546 0 0 0-.193.309l-.001.004c-.029.14-.046.3-.046.464v.045-.002 2.488c-.019.24.033.48.149.698a.55.55 0 0 0 .23.168l.004.001a.633.633 0 0 0 .304.039h-.003a.63.63 0 0 0 .415-.114l-.002.001a.503.503 0 0 0 .174-.299v-.003c.027-.165.039-.332.036-.498v-.505h1.168v.461a1.87 1.87 0 0 1-.407 1.293l.003-.004c-.268.304-.725.457-1.396.457s-1.179-.163-1.467-.501zm4.859.022c-.294-.32-.442-.784-.442-1.399v-2.157c0-.609.147-1.07.442-1.383s.788-.469 1.479-.467c.685 0 1.176.156 1.471.467.295.313.444.774.444 1.383v2.156c0 .609-.149 1.077-.449 1.398s-.788.481-1.467.481c-.678 0-1.18-.163-1.478-.479zm2.022-.518c.105-.199.154-.419.14-.638v-2.641l.002-.07a1.17 1.17 0 0 0-.143-.562l.003.006a.558.558 0 0 0-.234-.17l-.004-.001a.622.622 0 0 0-.312-.037h.003a.64.64 0 0 0-.312.038l.004-.002a.557.557 0 0 0-.24.171l-.001.001c-.107.195-.154.41-.14.626V14.1c-.014.22.033.439.14.639a.732.732 0 0 0 .246.158.805.805 0 0 0 .606-.002l-.006.002a.732.732 0 0 0 .246-.158v-.013zm2.776-4.825h1.257l.944 3.979.966-3.979h1.222l.123 5.743h-.903l-.097-3.991-.934 3.991h-.725l-.966-4.006-.089 4.006h-.913l.114-5.743zm5.921 0h1.956c1.128 0 1.691.543 1.691 1.631 0 1.041-.593 1.562-1.78 1.56h-.667v2.552h-1.207l.007-5.744zm1.671 2.454a.93.93 0 0 0 .665-.182.922.922 0 0 0 .173-.653v.004l.001-.065c0-.162-.021-.319-.062-.469l.003.013a.43.43 0 0 0-.089-.158.493.493 0 0 0-.15-.114l-.003-.001a1.24 1.24 0 0 0-.476-.094l-.066.002h.003-.468v1.717h.468zm3.718-2.454h1.297l1.331 5.743h-1.126l-.263-1.324h-1.158l-.27 1.324h-1.143l1.331-5.743zm1.11 3.753-.452-2.411-.452 2.411h.903zm2.594-3.753h.846l1.618 3.276V9.902h1.003v5.743h-.805l-1.628-3.42v3.42h-1.036l.003-5.743zm5.815 3.552-1.345-3.545h1.133l.821 2.278.771-2.278h1.109l-1.33 3.546v2.19h-1.159v-2.19zm-28.62 4.702v.3h-.986v2.334h-.412v-2.334h-.991v-.3h2.389zm3.089 2.634h-.328a.141.141 0 0 1-.081-.025.134.134 0 0 1-.053-.06v-.001l-.284-.626H37.12l-.285.626a.168.168 0 0 1-.044.071.144.144 0 0 1-.082.025h-.326l1.208-2.634h.42l1.223 2.624zm-2-.978h1.141l-.484-1.072a1.765 1.765 0 0 1-.086-.235l-.003-.014-.046.14-.043.11-.479 1.07zm4.083.719a1.386 1.386 0 0 0 .421-.031c.059-.012.117-.028.173-.048.053-.018.107-.042.162-.065v-.592h-.488a.095.095 0 0 1-.061-.022.06.06 0 0 1-.018-.021.048.048 0 0 1-.006-.024V19.523h.937v1.01a1.799 1.799 0 0 1-.497.211l-.013.003c-.099.026-.199.043-.302.055s-.224.016-.345.016h-.023c-.212 0-.416-.036-.606-.102l.013.004a1.499 1.499 0 0 1-.486-.277l.002.002a1.259 1.259 0 0 1-.307-.409l-.003-.008a1.29 1.29 0 0 1-.112-.531v-.017.001-.016c0-.193.04-.377.112-.543l-.003.009c.07-.156.176-.299.312-.417s.302-.211.483-.273c.206-.068.427-.101.647-.098.112 0 .225.007.336.023.098.014.194.036.287.067.085.027.166.063.242.105.074.041.144.087.21.137l-.116.163a.101.101 0 0 1-.039.035h-.001a.112.112 0 0 1-.055.014.15.15 0 0 1-.076-.021h.001a1.563 1.563 0 0 1-.125-.066l.007.004a1.062 1.062 0 0 0-.155-.069l-.008-.002a1.507 1.507 0 0 0-.212-.057l-.009-.001a1.749 1.749 0 0 0-.29-.023h-.018.001-.015c-.162 0-.317.027-.462.076l.01-.003a.917.917 0 0 0-.577.529l-.002.006a1.234 1.234 0 0 0 .003.887l-.003-.008a.938.938 0 0 0 .242.332c.1.09.219.161.353.208.154.046.316.063.479.052zm3.851-.041h1.319v.3h-1.723v-2.634h.413l-.009 2.334zm2.691.3h-.412v-2.634h.412v2.634zm1.536-2.621a.217.217 0 0 1 .064.047l1.766 1.985-.002-.047.002-.049v.002-1.963h.36v2.645h-.221a.196.196 0 0 1-.077-.016h.001a.23.23 0 0 1-.065-.05l-1.764-1.984v2.048h-.346v-2.634h.215c.023 0 .046.004.068.012zm5.231-.013v.289h-1.464v.87h1.186v.279h-1.186v.9h1.464v.289h-1.889v-2.628h1.889zM11.336 1.889l18.343 4.496v15.757l-18.343-4.494V1.888zM10.16.545v17.868l20.693 5.075V5.622L10.16.546z"/><path fill="#afb1b8" style="fill:var(--color4, #afb1b8)" d="M21.25 31.781.555 26.702V8.837l20.696 5.077v17.867z"/><path fill="#afb1b8" style="fill:var(--color4, #afb1b8)" d="m10.503 1.686 18.103 4.44-7.699 6.649L2.801 8.333l7.701-6.647zM10.159.545.554 8.837l20.696 5.077 9.603-8.294L10.16.545zm12.255 30.231 8.439-7.288-8.439-2.069v9.358z"/></symbol><symbol id="instagram" viewBox="0 0 32 32"><path fill="#afb1b8" style="fill:var(--color4, #afb1b8)" d="M31.968 9.408c-.074-1.701-.349-2.869-.742-3.882a7.839 7.839 0 0 0-1.85-2.837l-.001-.001A7.906 7.906 0 0 0 26.597.861l-.054-.018C25.524.449 24.362.176 22.661.101 20.949.019 20.405 0 16.059 0c-4.344 0-4.888.019-6.595.094-1.699.074-2.869.349-3.88.742a7.847 7.847 0 0 0-2.839 1.85l-.001.001A7.9 7.9 0 0 0 .919 5.465l-.018.054C.506 6.538.232 7.7.157 9.401c-.082 1.712-.101 2.256-.101 6.602 0 4.344.019 4.888.094 6.595.075 1.701.35 2.869.744 3.882a7.915 7.915 0 0 0 1.849 2.837l.001.001c.8.813 1.77 1.443 2.832 1.843 1.019.395 2.182.67 3.882.744 1.707.075 2.251.094 6.595.094 4.346 0 4.89-.019 6.595-.094 1.701-.074 2.869-.349 3.882-.742a8.237 8.237 0 0 0 4.664-4.628l.019-.055c.394-1.019.669-2.182.744-3.882.075-1.707.093-2.251.093-6.595s-.006-4.888-.08-6.595zm-2.88 13.066c-.07 1.563-.333 2.406-.55 2.97a5.341 5.341 0 0 1-3.004 3.024l-.036.012c-.56.219-1.411.482-2.968.55-1.688.075-2.194.094-6.464.094-4.269 0-4.782-.019-6.464-.094-1.563-.069-2.406-.331-2.97-.55a4.953 4.953 0 0 1-1.836-1.192l-.001-.001a4.978 4.978 0 0 1-1.184-1.803L3.6 25.45c-.218-.563-.48-1.413-.549-2.97-.075-1.688-.094-2.195-.094-6.464 0-4.27.019-4.784.094-6.464.069-1.563.331-2.406.549-2.97a4.897 4.897 0 0 1 1.198-1.837l.002-.002a4.972 4.972 0 0 1 1.806-1.182l.034-.011c.56-.219 1.411-.48 2.968-.55 1.688-.074 2.195-.093 6.464-.093 4.275 0 4.782.019 6.464.093 1.563.069 2.406.331 2.97.55a4.91 4.91 0 0 1 1.837 1.194c.531.52.938 1.144 1.195 1.84.218.56.48 1.411.549 2.968.075 1.688.094 2.194.094 6.464 0 4.269-.019 4.768-.094 6.458z"/><path fill="#afb1b8" style="fill:var(--color4, #afb1b8)" d="M16.059 7.782a8.223 8.223 0 0 0-8.219 8.221v.002a8.222 8.222 0 1 0 16.444 0 8.222 8.222 0 0 0-8.222-8.222h-.002zm0 13.552a5.333 5.333 0 0 1 .001-10.666h.001a5.334 5.334 0 1 1 0 10.668zM26.525 7.458a1.92 1.92 0 0 1-3.84 0 1.92 1.92 0 0 1 3.84 0z"/></symbol><symbol id="linkedin" viewBox="0 0 32 32"><path fill="#afb1b8" style="fill:var(--color4, #afb1b8)" d="M31.992 32H32V20.262c0-5.741-1.237-10.163-7.947-10.163-3.227 0-5.392 1.77-6.277 3.45h-.093v-2.914h-6.365v21.363h6.627V21.42c0-2.786.528-5.48 3.978-5.48 3.398 0 3.448 3.179 3.448 5.658V32h6.621zM.528 10.635h6.635V32H.528V10.635zM3.843 0A3.843 3.843 0 0 0 0 3.843c0 2.12 1.722 3.878 3.843 3.878 2.12 0 3.842-1.757 3.842-3.878S5.965.002 3.844 0z"/></symbol><symbol id="smartphone" viewBox="0 0 20 32"><path fill="#757575" style="fill:var(--color3, #757575)" d="M17 0H3C1.346 0 0 1.346 0 3v26c0 1.654 1.346 3 3 3h14c1.654 0 3-1.346 3-3V3c0-1.654-1.346-3-3-3zM3 2h14a1 1 0 0 1 1 1v21H2V3a1 1 0 0 1 1-1zm14 28H3a1 1 0 0 1-1-1v-3h16v3a1 1 0 0 1-1 1z"/><path fill="#757575" style="fill:var(--color3, #757575)" d="M4.708 27.478a.889.889 0 0 1 .001 1.319l-.001.001a1.048 1.048 0 0 1-1.417 0l.001.001a.889.889 0 0 1-.001-1.319l.001-.001a1.048 1.048 0 0 1 1.417 0l-.001-.001z"/></symbol><symbol id="twitter" viewBox="0 0 32 32"><path fill="#afb1b8" style="fill:var(--color4, #afb1b8)" d="M32 6.078c-1.1.493-2.376.857-3.713 1.028l-.068.007a6.556 6.556 0 0 0 2.873-3.579l.013-.046a12.89 12.89 0 0 1-4.076 1.573l-.084.014A6.558 6.558 0 0 0 15.6 9.557v.004c0 .52.043 1.021.152 1.496-5.454-.266-10.28-2.88-13.522-6.861a6.524 6.524 0 0 0-.902 3.313v.001a6.57 6.57 0 0 0 2.914 5.451 6.453 6.453 0 0 1-2.994-.823l.033.017v.072a6.592 6.592 0 0 0 5.213 6.44l.043.008a6.403 6.403 0 0 1-1.662.215h-.061.003c-.419 0-.843-.024-1.242-.112.85 2.598 3.261 4.509 6.13 4.57a13.096 13.096 0 0 1-8.123 2.8H1.57h.001c-.538 0-1.053-.026-1.57-.091 2.827 1.846 6.287 2.944 10.004 2.944h.063-.003c12.072 0 18.672-10 18.672-18.669 0-.288-.01-.57-.024-.848a13.19 13.19 0 0 0 3.258-3.356l.03-.047z"/></symbol></defs></svg>